# xmcd
#
# Track frame offsets: 
#        150
#        22753
#        36451
#        49070
#        67265
#        84269
#        101746
#        113993
#        128733
#        149249
#        159992
#        173036
#        191394
#        205709
#
# Disc length: 3096 seconds
#
# Revision: 0
# Processed by: cddbd v1.5.2PL0 Copyright (c) Steve Scherf et al.
# Submitted via: ExactAudioCopy v0.99pb5
#
DISCID=c10c160e
DTITLE=Eddie And Vaan Shaw - Naked
DYEAR=2009
DGENRE=Blues
TTITLE0=Me And My Boy
TTITLE1=Lick Skillet
TTITLE2=Greedy Man
TTITLE3=Voices Crying
TTITLE4=Mississippi Sax
TTITLE5=Greenville Bound
TTITLE6=My Friend Roscoe
TTITLE7=Black Eyed Peas
TTITLE8=Pickin' Cotton
TTITLE9=Motel 6
TTITLE10=I Don't Trust Nobody
TTITLE11=Mule Boy
TTITLE12=My Woman Is Ugly
TTITLE13=I've Heard
EXTD=
EXTT0=
EXTT1=
EXTT2=
EXTT3=
EXTT4=
EXTT5=
EXTT6=
EXTT7=
EXTT8=
EXTT9=
EXTT10=
EXTT11=
EXTT12=
EXTT13=
PLAYORDER=
